<?xml version="1.0" encoding="UTF-8"?>
<svg  viewBox="0 0 140 58" version="1.1" xmlns="http://www.w3.org/2000/svg" xmlns:xlink="http://www.w3.org/1999/xlink">
    <!-- Generator: Sketch 52.2 (67145) - http://www.bohemiancoding.com/sketch -->
    <title>logo稻壳140x58</title>
    <desc>Created with Sketch.</desc>
    <g id="logo稻壳140x58" stroke="none" stroke-width="1" fill="none" fill-rule="evenodd">
        <g id="Group-16">
            <path d="M92.2817938,8.82670127 L93.8977174,11.5441176 L95.0981177,10.8318916 L93.4821942,8.1144752 L92.2817938,8.82670127 Z M99.1627869,10.8318916 L100.363187,11.5441176 L101.979111,8.82670127 L100.780486,8.1144752 L99.1627869,10.8318916 Z M128.302683,5.90292195 L126.91583,5.90292195 L126.91583,18.1112072 L126.910503,18.1112072 C126.79508,20.0780469 125.243083,21.6394656 123.314629,21.6905998 L123.314629,22.9159938 C123.357247,22.9159938 123.396313,22.925125 123.438931,22.925125 C126.019081,22.925125 128.112679,20.8596694 128.286701,18.2518262 L128.302683,18.2518262 L128.302683,18.142253 C128.302683,18.1312957 128.306234,18.1221646 128.306234,18.1112072 L128.302683,18.1112072 L128.302683,5.90292195 Z M134.310012,18.1112072 L134.304685,18.1112072 L134.304685,5.90292195 L132.919607,5.90292195 L132.919607,18.1112072 L132.916056,18.1112072 C132.916056,18.1221646 132.919607,18.1312957 132.919607,18.142253 L132.919607,18.2518262 L132.933813,18.2518262 C133.107836,20.8596694 135.203209,22.925125 137.78336,22.925125 C137.856165,22.925125 137.927195,22.9159938 138,22.9141676 L138,21.6997309 C136.027153,21.6997309 134.428987,20.1109189 134.310012,18.1112072 Z M97.8682724,10.3570742 L96.2523488,7.63965782 L95.0519485,8.35188389 L96.6696478,11.0693003 L97.8682724,10.3570742 Z M120.164466,21.6175509 C118.548542,21.2742215 117.326833,19.8497693 117.22384,18.1112072 L117.218513,18.1112072 L117.218513,14.451461 L108.444581,14.451461 L108.444581,18.1112072 L108.439254,18.1112072 C108.320279,20.1109189 106.723889,21.6997309 104.749265,21.6997309 L104.749265,22.9141676 C104.822071,22.9159938 104.8931,22.925125 104.967682,22.925125 C107.546056,22.925125 109.64143,20.8596694 109.815452,18.2518262 L109.829658,18.2518262 L109.829658,18.1459054 C109.829658,18.1331219 109.83321,18.1221646 109.834985,18.1112072 L109.829658,18.1112072 L109.829658,15.8759131 L115.833436,15.8759131 L115.833436,18.1112072 L115.828108,18.1112072 C115.829884,18.1221646 115.833436,18.1312957 115.833436,18.142253 L115.833436,18.2518262 L115.847641,18.2518262 C116.021664,20.8578431 118.115262,22.9232987 120.693636,22.925125 L120.693636,21.6796424 C120.576438,21.6668589 120.365124,21.6358131 120.096988,21.5499808 C120.120072,21.5718954 120.139605,21.5974625 120.164466,21.6175509 Z M97.8238789,14.451461 L100.594034,14.451461 L100.594034,17.3021915 L97.8238789,17.3021915 L97.8238789,18.7266436 L100.594034,18.7266436 L100.594034,21.5755479 L93.2051787,21.5755479 L93.2051787,18.7266436 L95.9753334,18.7266436 L95.9753334,17.3021915 L93.2051787,17.3021915 L93.2051787,14.5573818 L95.3058793,13.3118993 L94.6115649,12.0773741 L93.011623,13.0270088 L91.8201014,13.0270088 L91.8201014,23 L101.979111,23 L101.979111,13.0270088 L97.8238789,13.0270088 L97.8238789,14.451461 Z M101.49611,5.3769704 L101.139186,4 L91.7739321,6.0216263 L92.1326316,7.39859669 L101.49611,5.3769704 Z M106.597811,13.0270088 L119.065283,13.0270088 L119.065283,13.9766436 L120.45036,13.9766436 L120.45036,11.6025567 L105.212734,11.6025567 L105.212734,13.9766436 L106.597811,13.9766436 L106.597811,13.0270088 Z M112.13812,9.22846982 L107.982888,9.22846982 L107.982888,10.652922 L117.680205,10.652922 L117.680205,9.22846982 L113.523198,9.22846982 L113.523198,7.80219146 L119.990443,7.80219146 L119.990443,6.37773933 L113.523198,6.37773933 L113.523198,4.00365244 L112.13812,4.00365244 L112.13812,6.37773933 L105.674426,6.37773933 L105.674426,7.80219146 L112.13812,7.80219146 L112.13812,9.22846982 Z M88.1247861,7.80219146 L86.7397088,7.80219146 L86.7397088,9.22846982 L83.5078617,9.22846982 L83.5078617,10.652922 L86.7397088,10.652922 L86.7397088,11.7687428 L83,18.4307958 L84.2004003,19.1430219 L86.7397088,14.6176471 L86.7397088,23 L88.1247861,23 L88.1247861,15.7298155 L89.7424854,18.6682045 L90.94111,17.9559785 L88.4018016,13.3392926 L88.1247861,13.5036524 L88.1247861,10.652922 L91.3566332,10.652922 L91.3566332,9.22846982 L88.1247861,9.22846982 L88.1247861,7.80219146 Z M90.8097052,5.51211073 L90.4510057,4.13696655 L83.4616924,6.0216263 L83.820392,7.39859669 L90.8097052,5.51211073 Z" id="Fill-1" fill="#778692"></path>
            <path d="M32.0917857,42.8102062 C25.8417857,49.6983 17.4614286,50.8543312 17.4614286,50.8543312 C17.4614286,50.8543312 17.7096429,42.8921437 25.0257143,36.0378937 C32.3417857,29.1836437 39.3185714,27.4522687 39.3185714,27.4522687 C39.3185714,27.4522687 38.3435714,35.9221125 32.0917857,42.8102062 M14.5757143,50.8685812 C14.5757143,50.8685812 7.67214286,42.9687375 7.07392857,35.9506125 C6.26142857,26.4120187 13.1739286,18.027675 13.1739286,18.027675 C12.7560714,31.1163 17.0917857,36.9552375 17.0917857,36.9552375 C17.0917857,36.9552375 18.1846429,38.4603937 17.4578571,42.9687375 C16.7382143,47.4272062 14.5757143,50.8685812 14.5757143,50.8685812 M16.0596429,21.0255187 C16.8167857,12.441675 22.0257143,6.00245625 22.0257143,6.00245625 C22.0257143,6.00245625 27.1007143,12.1513312 26.0739286,22.0212375 C25.0721429,31.6471125 19.9507143,37.2491437 19.9507143,37.2491437 C19.9507143,37.2491437 15.3042857,29.6075812 16.0596429,21.0255187 M19.7971429,0.00855 C19.2721429,0.00855 18.7525,0.02458125 18.2346429,0.05308125 L18.2346429,0.03170625 L0.000714285714,0.03170625 L0.000714285714,56.9925187 L18.2346429,56.9925187 L18.2346429,56.9551125 C18.7525,56.9836125 19.2721429,56.9996437 19.7971429,56.9996437 C35.5739286,56.9996437 48.3632143,44.2423312 48.3632143,28.5049875 C48.3632143,12.7676437 35.5739286,0.00855 19.7971429,0.00855" id="Fill-3" fill="#EB4E2F"></path>
            <path d="M61.9902253,52.5593145 C56.1911774,52.5593145 51.4904475,47.8585846 51.4904475,42.0595367 C51.4904475,36.2604887 56.1911774,31.5597588 61.9902253,31.5597588 C67.7892732,31.5597588 72.4900032,36.2604887 72.4900032,42.0595367 C72.4900032,47.8585846 67.7892732,52.5593145 61.9902253,52.5593145 M61.9991114,28 C54.2682323,28 48,34.2682323 48,42.0008886 C48,49.7317677 54.2682323,56 61.9991114,56 C69.7317677,56 76,49.7317677 76,42.0008886 C76,34.2682323 69.7317677,28 61.9991114,28" id="Fill-6" fill="#EB4E2F"></path>
            <path d="M96.6547995,49.6251349 C94.7332132,51.4556649 92.1212258,52.5877499 89.2388463,52.5877499 C83.3388914,52.5877499 78.5547544,47.8710251 78.5547544,42.054205 C78.5547544,36.2356077 83.3388914,31.5206601 89.2388463,31.5206601 C92.0725552,31.5206601 94.6394772,32.6154237 96.5520505,34.3890828 L98.8900406,31.7854649 C96.3519603,29.4448746 92.9504281,28 89.2009914,28 C81.3578188,28 75,34.2682323 75,42.0008886 C75,49.7317677 81.3578188,56 89.2009914,56 C93.0045065,56 96.4511041,54.5160267 99,52.1150111 L96.6547995,49.6251349 Z" id="Fill-8" fill="#EB4E2F"></path>
            <path d="M105.769077,32.9672984 C109.616542,30.7461492 114.280081,31.2436866 117.558604,33.8504273 L100.639718,43.6128224 C100.020994,39.4726003 101.921613,35.1884476 105.769077,32.9672984 M124.791268,39.589877 L121.347396,40.1886988 C122.115467,44.4266515 120.218404,48.8742807 116.273153,51.1505145 C111.270027,54.0380085 104.880107,52.3410505 101.962506,47.3674531 L121.854109,35.8921077 L123.196455,35.1155939 C123.175119,35.0782786 123.159118,35.0391864 123.137783,35.0018711 C119.268983,28.3064389 110.702864,26.0124359 104.00536,29.8772356 C97.3060785,33.7438122 95.0107568,42.3032329 98.8795563,48.9986651 C102.746578,55.6940973 111.312697,57.9881003 118.010201,54.1215237 C123.246237,51.1025376 125.774469,45.2156037 124.791268,39.589877" id="Fill-10" fill="#EB4E2F"></path>
            <path d="M140,27 C132.470034,27 126.342028,32.7672035 126,40 L129.479069,40 C129.988548,34.7242114 134.477669,30.5817916 140,30.4156795 L140,27 Z" id="Fill-12" fill="#EB4E2F"></path>
            <path d="M127,39 L128.48,39 C129.032285,39 129.48,39.4477153 129.48,40 L129.48,56 L126,56 L126,40 C126,39.4477153 126.447715,39 127,39 Z" id="Fill-14" fill="#EB4E2F"></path>
        </g>
        <rect id="Rectangle-2" fill="#EB4E2F" fill-rule="nonzero" opacity="0" x="0" y="0" width="140" height="58"></rect>
    </g>
</svg>